<svg width="13" height="13" viewBox="0 0 13 13" fill="none" xmlns="http://www.w3.org/2000/svg">
<g clip-path="url(#clip0_251_16617)">
<path d="M11.3954 5.81323H6.93061C6.73373 5.81323 6.57436 5.97261 6.57436 6.16948V7.59683C6.57436 7.7937 6.73373 7.95308 6.93061 7.95308H9.44545C9.17123 8.66792 8.65561 9.26558 8.0017 9.64526L9.07279 11.5015C10.7908 10.5078 11.8079 8.76167 11.8079 6.80933C11.8079 6.53042 11.7869 6.3312 11.747 6.10855C11.7142 5.93745 11.5665 5.81323 11.3954 5.81323Z" fill="#167EE6"/>
<path d="M6.3353 10.0954C5.10483 10.0954 4.03139 9.42271 3.45483 8.42896L1.59858 9.49771C2.54311 11.136 4.31264 12.2375 6.3353 12.2375C7.32905 12.2375 8.26421 11.9704 9.0728 11.504V11.5016L8.00171 9.64536C7.50952 9.9313 6.94233 10.0954 6.3353 10.0954Z" fill="#12B347"/>
<path d="M9.07045 11.5039V11.5015L7.99936 9.64526C7.50952 9.92886 6.94233 10.0953 6.3353 10.0953V12.2375C7.32905 12.2375 8.2642 11.9703 9.07045 11.5039Z" fill="#0F993E"/>
<path d="M3.00483 6.7648C3.00483 6.15776 3.17123 5.59058 3.45483 5.10073L1.59858 4.03198C1.12983 4.83589 0.86264 5.7687 0.86264 6.7648C0.86264 7.76089 1.12983 8.6937 1.59858 9.49761L3.45483 8.42886C3.16889 7.93901 3.00483 7.37183 3.00483 6.7648Z" fill="#FFD500"/>
<path d="M6.3353 3.43442C7.13686 3.43442 7.87514 3.72036 8.44936 4.1938C8.59233 4.31099 8.79858 4.30161 8.92749 4.1727L9.93764 3.16255C10.0853 3.01489 10.0736 2.77349 9.91655 2.63755C8.95327 1.79849 7.69936 1.29224 6.3353 1.29224C4.31264 1.29224 2.54311 2.3938 1.59858 4.03208L3.45483 5.10083C4.03139 4.10708 5.10483 3.43442 6.3353 3.43442Z" fill="#FF4B26"/>
<path d="M8.44936 4.1938C8.59233 4.31099 8.79858 4.30161 8.92748 4.1727L9.93764 3.16255C10.0853 3.01489 10.0736 2.77349 9.91655 2.63755C8.95326 1.79849 7.69936 1.29224 6.3353 1.29224V3.43442C7.13686 3.43442 7.87514 3.71802 8.44936 4.1938Z" fill="#D93F21"/>
</g>
<defs>
<clipPath id="clip0_251_16617">
<rect width="12" height="12" fill="white" transform="translate(0.323578 0.800049)"/>
</clipPath>
</defs>
</svg>
